<?xml version="1.0" encoding="UTF-8" standalone="no"?>
<svg width="157px" height="36px" viewBox="0 0 157 36" version="1.1" xmlns="http://www.w3.org/2000/svg" xmlns:xlink="http://www.w3.org/1999/xlink" xmlns:sketch="http://www.bohemiancoding.com/sketch/ns">
    <!-- Generator: Sketch 3.3.3 (12072) - http://www.bohemiancoding.com/sketch -->
    <title>logo</title>
    <desc>Created with Sketch.</desc>
    <defs></defs>
    <g id="Page-2-Home-" stroke="none" stroke-width="1" fill="none" fill-rule="evenodd" sketch:type="MSPage">
        <g id="Home---Desktop-v2" sketch:type="MSArtboardGroup" transform="translate(-74.000000, -12.000000)">
            <g id="navbar---desktop" sketch:type="MSLayerGroup">
                <g id="logo" transform="translate(74.285714, 12.000000)" sketch:type="MSShapeGroup">
                    <path d="M33.106083,0.429 C33.0944352,0.42 33.0823856,0.412285714 33.0699345,0.405 C32.5256974,0.0827142857 31.1476328,1.10614286 30.604199,1.36971429 C29.4755597,2.57314286 28.3481254,1.63714286 28.3481254,1.63714286 C26.9704625,0.835285714 23.8379864,2.439 23.8379864,2.439 C20.4544784,4.84585714 21.2067707,9.12385714 21.2067707,9.12385714 C21.1882948,9.65871429 21.2650101,10.0435714 21.4059896,10.3174286 L21.7192774,10.686 C22.8009235,11.4527143 25.2164526,9.65871429 25.2164526,9.65871429 C25.3915724,9.55157143 25.5265272,9.42685714 25.6413994,9.29485714 C25.6904008,9.21857143 25.7161064,9.17014286 25.7161064,9.17014286 C26.0394355,8.93957143 25.9884258,7.66157143 25.9691466,7.32942857 C25.8000515,6.61757143 25.4666812,6.04928571 25.4666812,6.04928571 C25.4666812,6.04928571 25.7988465,6.60257143 26.0065001,7.33157143 C26.5535488,8.37642857 26.026181,9.63471429 26.026181,9.63471429 C25.8402166,10.695 22.5482851,11.8877143 22.5482851,11.8877143 C20.4364041,11.8877143 20.5797935,9.79285714 20.5797935,9.79285714 C20.5797935,9.79285714 18.825382,11.7981429 18.1992081,12.8678571 C18.1992081,12.8678571 16.4451982,17.4132857 13.8131793,16.8784286 C13.8131793,16.8784286 7.8097019,17.4132857 6.92486476,27.4187143 C5.14635417,25.365 1.9423842,20.6978571 3.08949943,14.6987143 C3.08949943,14.6987143 -0.0116478788,16.7695714 0.0200825496,22.8231429 L0.560704785,22.5552857 C0.348633061,22.7335714 -0.0140577847,23.4415714 0.565926248,26.2448571 L1.14229542,25.5025714 C1.14229542,25.5025714 2.18980121,30.4512857 4.56837839,31.1267143 L5.1009676,30.7315714 C5.10618907,30.7465714 5.11060723,30.7632857 5.11703364,30.7782857 C6.67624279,34.7061429 9.5536705,35.7295714 9.5536705,35.7295714 L18.9515004,35.7295714 C18.9515004,33.858 16.0684496,33.7247143 16.0684496,33.7247143 C19.7021861,32.7882857 19.3270441,27.5742857 19.3270441,27.5742857 C19.3290524,27.5742857 19.3314623,27.5734286 19.3334705,27.5734286 C19.3314623,27.5635714 18.4634945,23.949 16.9585082,24.2134286 C16.9585082,24.2134286 18.6627134,23.6318571 19.9407668,27.3857143 C20.9031226,26.9378571 22.3338034,25.8355714 22.3338034,25.8355714 C22.3338034,29.9807143 24.7143889,35.7295714 24.7143889,35.7295714 L29.2253312,35.7295714 C29.2253312,33.591 26.8447457,33.189 26.8447457,33.189 C24.088215,28.377 27.9725817,19.4185714 27.9725817,19.4185714 C29.3514496,15.5417143 27.5958331,12.0651429 27.5958331,12.0651429 C28.2228103,8.85685714 32.4827207,5.78142857 32.4827207,5.78142857 C33.2281849,5.24314286 33.6282293,3.89314286 33.5977039,2.99142857 C33.5792279,2.44671429 33.5884659,0.792428571 33.106083,0.429" id="Fill-19" fill="#FFB000"></path>
                    <path d="M60.6693824,30.4988571 L59.9970186,30.4988571 L59.9970186,21.4478571 C59.9970186,21.2635714 59.2640056,21.1714286 57.7983811,21.1714286 C56.3335599,21.1714286 55.6009485,21.2635714 55.6009485,21.4478571 L55.6009485,30.3064286 C55.0832204,30.693 54.6173052,30.8854286 54.2040064,30.8854286 C53.6517363,30.8854286 53.377007,30.426 53.377007,29.5062857 L53.377007,21.4478571 C53.377007,21.246 52.6351576,21.1448571 51.1514588,21.1448571 C49.668965,21.1448571 48.9275173,21.246 48.9275173,21.4478571 L48.9275173,29.589 C48.9275173,31.6491429 49.3243485,33.1255714 50.1172075,34.0178571 C50.9100666,34.9101429 52.1431351,35.3562857 53.8156099,35.3562857 C55.0225711,35.3562857 56.1520137,34.86 57.2039376,33.8665714 L57.2292416,33.8387143 C57.7815118,34.8505714 58.6346185,35.3562857 59.7901684,35.3562857 C60.3757755,35.3562857 60.8416907,34.9521429 61.1867089,34.1425714 C61.4281011,33.5164286 61.5485964,32.9005714 61.5485964,32.2937143 C61.5485964,31.0971429 61.2557928,30.4988571 60.6693824,30.4988571" id="Fill-20" fill="#004EA2"></path>
                    <path d="M71.2814033,27.6848571 C70.8845721,27.354 70.526701,27.0955714 70.2089951,26.9121429 C69.8888793,26.7287143 69.4880316,26.5212857 69.0060504,26.2911429 C68.5228642,26.061 68.1906989,25.8681429 68.0099559,25.7117143 C67.829213,25.5561429 67.7384399,25.3658571 67.7384399,25.146 C67.7384399,24.7967143 67.9709958,24.6218571 68.4377142,24.6218571 C69.2984523,24.6218571 70.1001477,24.8421429 70.8411938,25.2831429 C70.9789601,25.2278571 71.2336068,24.8695714 71.6047323,24.2065714 C71.9750545,23.5457143 72.1602156,23.0112857 72.1602156,22.6071429 C72.1602156,22.1284286 71.7079566,21.7422857 70.8030369,21.4478571 C69.8973139,21.153 68.794782,21.0068571 67.4926295,21.0068571 C66.1908786,21.0068571 65.0746905,21.3651429 64.1432618,22.0821429 C63.2118332,22.8004286 62.7467213,23.8401429 62.7467213,25.2012857 C62.7467213,27.3355714 63.8239493,28.8715714 65.9788069,29.8092857 C66.8764968,30.2511429 67.3243377,30.6094286 67.3243377,30.8854286 C67.3243377,31.2715714 67.0652728,31.4657143 66.5491513,31.4657143 C65.7386196,31.4657143 64.6340793,31.0144286 63.2383421,30.1131429 C62.9973515,30.2978571 62.7595742,30.6745714 62.5270182,31.2445714 C62.2944623,31.8154286 62.1779835,32.358 62.1779835,32.8727143 C62.1779835,33.6462857 62.6776374,34.2531429 63.6773467,34.6932857 C64.6774576,35.1351429 65.7900309,35.3562857 67.0142631,35.3562857 C68.8590461,35.3562857 70.237914,34.9007143 71.1520716,33.9895714 C72.065426,33.0805714 72.5225048,31.8891429 72.5225048,30.417 C72.5225048,29.295 72.109206,28.3842857 71.2814033,27.6848571" id="Fill-21" fill="#004EA2"></path>
                    <path d="M81.6946069,30.417 C81.1427384,30.7658571 80.4535053,30.9407143 79.6257026,30.9407143 C78.3496574,30.9407143 77.7118357,30.0402857 77.7118357,28.2364286 C77.7118357,27.2425714 77.8584383,26.5255714 78.1516435,26.0841429 C78.4448487,25.6422857 78.7942851,25.4211429 79.1995509,25.4211429 C79.6044151,25.4211429 80.1426275,25.7811429 80.8149912,26.4977143 C81.0049721,26.7188571 81.1648292,26.8294286 81.2937592,26.8294286 C81.4234925,26.8294286 81.521897,26.82 81.5913826,26.8007143 C82.0918397,26.6181429 82.4975072,25.9371429 82.8067785,24.7598571 C82.9445448,24.189 83.0140304,23.7068571 83.0140304,23.3104286 C83.0140304,22.9152857 82.9361101,22.6165714 82.7810728,22.4138571 C82.0737654,21.4752857 80.8109747,21.0068571 78.992299,21.0068571 C77.1736233,21.0068571 75.7160319,21.6788571 74.6215329,23.0207143 C73.5266323,24.3634286 72.9795837,26.1252857 72.9795837,28.3058571 C72.9795837,30.4855714 73.535067,32.2058571 74.6480419,33.4662857 C75.7598118,34.7267143 77.1081542,35.3562857 78.6950773,35.3562857 C80.2807954,35.3562857 81.5303316,35.0524286 82.4452926,34.4455714 C82.5308443,34.335 82.5738209,34.1108571 82.5738209,33.7701429 C82.5738209,33.4294286 82.4918841,32.7857143 82.3284122,31.8372857 C82.1641369,30.8905714 81.9536718,30.417 81.6946069,30.417" id="Fill-22" fill="#004EA2"></path>
                    <path d="M94.539004,30.4435714 L93.6605933,30.4435714 L93.6605933,26.0841429 C93.6605933,24.4101429 93.3067387,23.1445714 92.599833,22.29 C91.8921239,21.4345714 90.6815478,21.0068571 88.9656948,21.0068571 C87.2498418,21.0068571 85.9006961,21.237 84.9178561,21.6964286 C84.6242492,21.8614286 84.4784499,22.2338571 84.4784499,22.8137143 C84.4784499,23.3931429 84.7198422,24.1431429 85.2030283,25.0632857 C86.4091862,24.7692857 87.3406149,24.6218571 87.9957077,24.6218571 C88.5303051,24.6218571 88.8713068,24.6904286 89.0171061,24.8288571 C89.1637087,24.966 89.2372109,25.275 89.2372109,25.7528571 L89.2372109,26.0288571 L87.8153664,26.0288571 C84.4527443,26.0288571 82.7718349,27.528 82.7718349,30.5275714 C82.7718349,31.8338571 83.2020031,32.9648571 84.065151,33.9214286 C84.9262908,34.8775714 85.9878543,35.3562857 87.2458253,35.3562857 C88.9178983,35.3562857 90.1509669,34.8231429 90.9438259,33.756 C91.0823955,34.068 91.2808111,34.335 91.5386711,34.5552857 C92.1078105,35.0892857 92.8576929,35.3562857 93.7899249,35.3562857 C94.3064481,35.3562857 94.7157304,35.0442857 95.017772,34.4181429 C95.3190102,33.7928571 95.470031,33.159 95.470031,32.5135714 C95.470031,31.8707143 95.3884958,31.3645714 95.2250239,30.996 C95.0607486,30.6287143 94.8322092,30.4435714 94.539004,30.4435714 L94.539004,30.4435714 Z M89.2372109,30.9694286 C88.9789493,31.2445714 88.6889573,31.383 88.3712513,31.383 C88.0519388,31.383 87.7888574,31.2762857 87.5820071,31.0645714 C87.3755585,30.8537143 87.2715309,30.5455714 87.2715309,30.1414286 C87.2715309,29.277 87.6852314,28.8432857 88.5126325,28.8432857 L89.2372109,28.8432857 L89.2372109,30.9694286 L89.2372109,30.9694286 Z" id="Fill-23" fill="#004EA2"></path>
                    <path d="M105.86998,15.9081429 L96.7400514,15.9081429 C96.5159302,15.9081429 96.3472367,15.9548571 96.2359794,16.0461429 C96.1235171,16.1382857 96.0676877,16.3315714 96.0676877,16.6255714 L96.0676877,34.8951429 C96.0676877,35.1527143 96.4898228,35.3361429 97.3352982,35.4467143 L98.5510957,35.502 C98.981264,35.502 99.5198779,35.46 100.167339,35.3781429 C100.813997,35.295 101.136925,35.1244286 101.136925,34.8672857 L101.136925,28.2162857 L104.318402,28.2162857 C104.593935,28.2162857 104.732505,27.504 104.732505,26.0777143 C104.732505,24.6522857 104.5855,23.9387143 104.292295,23.9387143 L101.136925,23.9387143 L101.136925,20.7925714 L105.86998,20.7925714 C106.162382,20.7925714 106.309386,19.9787143 106.309386,18.3514286 C106.309386,16.7228571 106.162382,15.9081429 105.86998,15.9081429" id="Fill-24" fill="#004EA2"></path>
                    <path d="M118.377794,30.6445714 L117.70543,30.6445714 L117.70543,21.5935714 C117.70543,21.4092857 116.972417,21.3171429 115.506792,21.3171429 C114.041971,21.3171429 113.308556,21.4092857 113.308556,21.5935714 L113.308556,30.4512857 C112.79123,30.8387143 112.326118,31.0311429 111.912016,31.0311429 C111.360951,31.0311429 111.084615,30.5717143 111.084615,29.6515714 L111.084615,21.5935714 C111.084615,21.3908571 110.343167,21.2905714 108.860272,21.2905714 C107.377778,21.2905714 106.63633,21.3908571 106.63633,21.5935714 L106.63633,29.7347143 C106.63633,31.7944286 107.03276,33.2712857 107.82602,34.1635714 C108.61888,35.0558571 109.851546,35.502 111.524021,35.502 C112.731384,35.502 113.860425,35.0048571 114.912751,34.011 L114.938055,33.9844286 C115.48912,34.9962857 116.34303,35.502 117.49858,35.502 C118.08499,35.502 118.550504,35.0974286 118.895522,34.2874286 C119.136914,33.6621429 119.257008,33.045 119.257008,32.4385714 C119.257008,31.2428571 118.964606,30.6445714 118.377794,30.6445714" id="Fill-25" fill="#004EA2"></path>
                    <path d="M128.989815,27.8305714 C128.592983,27.4988571 128.235514,27.2408571 127.916201,27.0578571 C127.597692,26.8735714 127.196845,26.667 126.713257,26.4364286 C126.231276,26.2062857 125.899512,26.013 125.718367,25.8565714 C125.536821,25.7018571 125.446851,25.5115714 125.446851,25.2908571 C125.446851,24.9415714 125.679407,24.7667143 126.144519,24.7667143 C127.006864,24.7667143 127.808961,24.987 128.549605,25.4288571 C128.687773,25.3735714 128.942018,25.0152857 129.313545,24.3522857 C129.683466,23.6901429 129.86943,23.157 129.86943,22.7528571 C129.86943,22.2741429 129.41677,21.8871429 128.511448,21.5935714 C127.605725,21.2987143 126.503193,21.1512857 125.201442,21.1512857 C123.898888,21.1512857 122.782298,21.51 121.851673,22.2278571 C120.921048,22.9461429 120.455534,23.985 120.455534,25.3461429 C120.455534,27.4812857 121.532762,29.0164286 123.68762,29.955 C124.584506,30.3968571 125.033151,30.7551429 125.033151,31.0311429 C125.033151,31.4172857 124.774086,31.6105714 124.257161,31.6105714 C123.446629,31.6105714 122.343294,31.1601429 120.946352,30.2584286 C120.704558,30.4435714 120.467985,30.8194286 120.235028,31.3894286 C120.002472,31.9602857 119.885993,32.5028571 119.885993,33.0184286 C119.885993,33.792 120.385647,34.398 121.386561,34.839 C122.386672,35.2808571 123.498844,35.502 124.722273,35.502 C126.567457,35.502 127.946727,35.0455714 128.860885,34.1348571 C129.774641,33.2258571 130.231318,32.034 130.231318,30.5614286 C130.231318,29.4398571 129.817617,28.5291429 128.989815,27.8305714" id="Fill-26" fill="#004EA2"></path>
                    <path d="M143.075715,21.4551429 C142.696155,21.2712857 141.834212,21.1791429 140.489886,21.1791429 C139.144757,21.1791429 138.41094,21.3171429 138.291248,21.5935714 L135.731526,26.6434286 L135.731526,16.0461429 C135.731526,15.8622857 134.99771,15.7422857 133.532487,15.6878571 C131.963237,15.6878571 131.178411,15.8352857 131.178411,16.1292857 L131.178411,35.0601429 C131.178411,35.2808571 131.933113,35.3905714 133.441714,35.3905714 C134.950315,35.3905714 135.704616,35.2718571 135.704616,35.0331429 L135.704616,28.9337143 L138.265543,35.0601429 C138.386038,35.2255714 139.274088,35.3087143 140.92889,35.3087143 C141.377133,35.3087143 141.941854,35.286 142.623054,35.2401429 C143.304254,35.1938571 143.627985,35.1334286 143.593041,35.0601429 L139.713896,27.3055714 L143.075715,21.4551429" id="Fill-27" fill="#004EA2"></path>
                    <path d="M155.744189,31.1408571 C155.580315,30.7735714 155.351374,30.5892857 155.058571,30.5892857 L154.179357,30.5892857 L154.179357,26.229 C154.179357,24.5558571 153.825502,23.2902857 153.118998,22.4357143 C152.411691,21.5794286 151.200311,21.1512857 149.485261,21.1512857 C147.769007,21.1512857 146.419861,21.3827143 145.437423,21.8421429 C145.144217,22.0071429 144.998016,22.3795714 144.998016,22.9585714 C144.998016,23.5388571 145.238204,24.2888571 145.722193,25.2077143 C146.92795,24.9141429 147.85978,24.7667143 148.514873,24.7667143 C149.049872,24.7667143 149.39007,24.8361429 149.537074,24.9741429 C149.682874,25.1117143 149.756376,25.4198571 149.756376,25.8985714 L149.756376,26.1745714 L148.33413,26.1745714 C144.971909,26.1745714 143.291,27.6737143 143.291,30.6728571 C143.291,31.9795714 143.721168,33.1105714 144.583914,34.0662857 C145.445456,35.0232857 146.506618,35.502 147.765392,35.502 C149.437063,35.502 150.670533,34.9688571 151.462991,33.9012857 C151.601159,34.2137143 151.799173,34.4807143 152.057836,34.701 C152.626975,35.235 153.376858,35.502 154.308688,35.502 C154.826015,35.502 155.235297,35.1895714 155.536937,34.5634286 C155.838175,33.9377143 155.989196,33.3038571 155.989196,32.6584286 C155.989196,32.0155714 155.907661,31.5098571 155.744189,31.1408571 L155.744189,31.1408571 Z M149.756376,31.1142857 C149.498114,31.3894286 149.208524,31.5278571 148.890416,31.5278571 C148.570702,31.5278571 148.308424,31.422 148.101172,31.2102857 C147.894723,30.9994286 147.790696,30.6912857 147.790696,30.2862857 C147.790696,29.4214286 148.204798,28.989 149.031797,28.989 L149.756376,28.989 L149.756376,31.1142857 L149.756376,31.1142857 Z" id="Fill-28" fill="#004EA2"></path>
                    <path d="M47.1779256,26.8294286 C46.6095894,26.0198571 45.902282,25.4498571 45.05761,25.1181429 C46.6095894,24.1247143 47.3847758,22.6714286 47.3847758,20.7578571 C47.3847758,17.4282857 45.3680862,15.7624286 41.3331003,15.7624286 L35.4364621,15.7624286 C35.2782116,15.7624286 35.1677576,15.7864286 35.0998786,15.8314286 C35.0862224,15.84 35.071763,15.8485714 35.0617217,15.8597143 C35.0010724,15.924 34.9713503,16.0581429 34.9713503,16.2595714 L34.9713503,33.9214286 C34.9713503,34.2707143 35.0661399,34.5518571 35.2553175,34.7627143 C35.4457001,34.9744286 35.6866907,35.0807143 35.9794942,35.0807143 L42.0833844,35.0807143 C43.9972514,35.0807143 45.4664907,34.6482857 46.4931106,33.7834286 C47.5189273,32.9185714 48.0318356,31.746 48.0318356,30.2644286 C48.0318356,28.7845714 47.747065,27.6385714 47.1779256,26.8294286 L47.1779256,26.8294286 Z M42.031973,30.2511429 C41.6865532,30.5455714 41.1435211,30.693 40.4020733,30.693 L39.9369615,30.693 L39.9369615,27.1054286 L40.4803953,27.1054286 C41.2214413,27.1054286 41.751219,27.2335714 42.0701299,27.4915714 C42.3890408,27.7491429 42.5488979,28.2004286 42.5488979,28.8432857 C42.5488979,29.4878571 42.3757863,29.9562857 42.031973,30.2511429 L42.031973,30.2511429 Z M40.0662931,23.8487143 L39.9369615,23.8487143 L39.9369615,20.2341429 L40.4803953,20.2341429 C41.2214413,20.2341429 41.751219,20.3815714 42.0701299,20.6751429 C42.3890408,20.97 42.5488979,21.4384286 42.5488979,22.0821429 C42.5488979,23.2598571 41.7214968,23.8487143 40.0662931,23.8487143 L40.0662931,23.8487143 Z" id="Fill-30" fill="#004EA2"></path>
                    <path d="M38.103023,15.7624286 C38.5476507,15.462 38.7689604,14.973 38.3046518,14.3194286 C37.7262744,13.506 36.1007928,13.7232857 35.3256064,13.8634286 L30.8504111,15.0964286 C30.8504111,15.0964286 30.0041324,15.2661429 29.0522196,15.4761429 C29.1373696,16.6448571 29.058646,18.237 28.4485381,20.0584286 C28.6152233,19.9418571 28.7815068,19.8265714 28.948192,19.7108571 C29.5088968,19.3208571 30.0700032,18.9317143 30.6303063,18.5417143 C31.3203427,18.0625714 32.5048115,18.1667143 33.0562783,17.5277143 C33.5322347,16.9778571 33.9262544,16.5441429 34.5154764,16.1301429 C34.6038396,16.068 34.8424203,15.8095714 34.9556859,15.8087143 C34.9990642,15.8082857 35.0496722,15.8202857 35.0998786,15.8314286 C35.1677576,15.7864286 35.2782116,15.7624286 35.4364621,15.7624286 L38.103023,15.7624286" id="Fill-29" fill="#FFB000"></path>
                </g>
            </g>
        </g>
    </g>
</svg>